<?xml version="1.0" encoding="utf-8"?>
<!-- Generator: Adobe Illustrator 27.2.0, SVG Export Plug-In . SVG Version: 6.00 Build 0)  -->
<svg version="1.1" id="Layer_1" xmlns="http://www.w3.org/2000/svg" xmlns:xlink="http://www.w3.org/1999/xlink" x="0px" y="0px"
	 viewBox="0 0 487 584" style="enable-background:new 0 0 487 584;" xml:space="preserve">
<path d="M435.3,533.3c-4.2-102.2-88.7-184-191.8-184s-187.6,81.8-191.8,184H16c3.1-86,55.1-163.8,134.5-199.7l12.7-5.7l-11.3-8.1
	c-20.1-14.4-36.8-33.4-48.2-55.1c-12-22.7-18.1-47.5-18.1-73.4c0-86.6,70.9-157.1,158-157.1c42,0,81.6,16.4,111.5,46
	c29.9,29.7,46.4,69.2,46.4,111c0,26-6.1,50.7-18.1,73.4c-11.4,21.7-28.1,40.7-48.2,55.1l-11.3,8.1l12.7,5.7
	c79.3,35.9,131.4,113.7,134.5,199.7H435.3z M247.6,69.9c-70.7-2.3-128.7,55.7-126.4,126.4c2.1,64.1,54.1,116.2,118.2,118.2
	c70.7,2.3,128.7-55.7,126.4-126.4C363.7,124.1,311.7,72,247.6,69.9z"/>
</svg>
